<svg width="32" height="32" viewBox="0 0 32 32" fill="none" xmlns="http://www.w3.org/2000/svg">
<path d="M16.006 19.91L16.006 19.9099L15.9941 19.91C14.8079 19.9241 13.6642 19.4693 12.8117 18.6445L7.18028 12.9533C7.10459 12.8594 7.06528 12.7411 7.06995 12.6202C7.07481 12.4944 7.12698 12.375 7.21603 12.286C7.30508 12.1969 7.42444 12.1448 7.55028 12.1399C7.67078 12.1353 7.78871 12.1743 7.88249 12.2496L13.5265 17.8936L13.5264 17.8937L13.5359 17.9027C14.2011 18.5339 15.0831 18.8857 16 18.8857C16.917 18.8857 17.799 18.5339 18.4642 17.9027L18.4643 17.9028L18.4736 17.8936L24.1176 12.2496C24.2114 12.1743 24.3293 12.1353 24.4498 12.1399C24.5756 12.1448 24.695 12.1969 24.784 12.286C24.8731 12.375 24.9253 12.4944 24.9301 12.6202C24.9348 12.7411 24.8955 12.8594 24.8198 12.9533L19.1884 18.6445C18.3359 19.4693 17.1922 19.9241 16.006 19.91Z" fill="black" stroke="#91919F"/>
</svg>
